<?xml version="1.0" encoding="utf-8"?>
<!-- Generator: Adobe Illustrator 16.0.0, SVG Export Plug-In . SVG Version: 6.00 Build 0)  -->
<!DOCTYPE svg PUBLIC "-//W3C//DTD SVG 1.1//EN" "http://www.w3.org/Graphics/SVG/1.1/DTD/svg11.dtd">
<svg version="1.1" id="Capa_1" xmlns="http://www.w3.org/2000/svg" xmlns:xlink="http://www.w3.org/1999/xlink" x="0px" y="0px"
	 width="24px" height="24px" viewBox="0 0 24 24" enable-background="new 0 0 24 24" xml:space="preserve">
<path d="M19,6.41L8.7,16.71c-0.362,0.417-0.994,0.461-1.411,0.099c-0.417-0.361-0.461-0.994-0.099-1.41
	c0.034-0.039,0.07-0.074,0.109-0.107L17.58,5H14c-0.553,0-1-0.448-1-1s0.447-1,1-1h6c0.553,0,1,0.448,1,1v6c0,0.552-0.447,1-1,1
	s-1-0.448-1-1V6.41z M17,14c0-0.553,0.447-1,1-1s1,0.447,1,1v5c0,1.104-0.896,2-2,2H5c-1.104,0-2-0.896-2-2V7c0-1.1,0.9-2,2-2h5
	c0.552,0,1,0.448,1,1s-0.448,1-1,1H5v12h12V14z"/>
</svg>
